<mxfile host="65bd71144e">
    <diagram id="h8lbZmXiFE3LqjfX9MrK" name="Page-1">
        <mxGraphModel dx="186" dy="359" grid="1" gridSize="10" guides="1" tooltips="1" connect="1" arrows="1" fold="1" page="1" pageScale="1" pageWidth="827" pageHeight="1169" math="0" shadow="0">
            <root>
                <mxCell id="0"/>
                <mxCell id="1" parent="0"/>
                <mxCell id="2" value="" style="ellipse;whiteSpace=wrap;html=1;gradientColor=default;fillColor=none;strokeColor=default;rounded=1;" parent="1" vertex="1">
                    <mxGeometry x="20" y="150" width="120" height="80" as="geometry"/>
                </mxCell>
            </root>
        </mxGraphModel>
    </diagram>
</mxfile>